<svg width="127" height="42" viewBox="0 0 127 42" fill="none" xmlns="http://www.w3.org/2000/svg">
<path d="M116.887 -0.000107641H10.1192C9.73002 -0.000107641 9.34551 -0.000107641 8.95736 0.00199236C8.63244 0.00409236 8.31011 0.0101929 7.98207 0.0153274C7.26942 0.0236243 6.55844 0.0856524 5.85532 0.200873C5.15319 0.318602 4.47305 0.540554 3.83791 0.859223C3.20355 1.18059 2.62391 1.59817 2.12003 2.09682C1.6135 2.59406 1.19128 3.16881 0.86958 3.79896C0.546997 4.42786 0.323316 5.10178 0.206264 5.79745C0.0880999 6.49224 0.0245144 7.19504 0.0160788 7.89955C0.00622986 8.22148 0.00518978 8.54448 0 8.86645V33.1364C0.00518978 33.4624 0.00622986 33.7783 0.0160788 34.1044C0.024517 34.8089 0.0881025 35.5117 0.206264 36.2064C0.322993 36.9025 0.546687 37.5768 0.86958 38.2059C1.19113 38.834 1.61342 39.4065 2.12003 39.9009C2.622 40.4018 3.20201 40.8197 3.83791 41.1386C4.47305 41.4581 5.15311 41.6814 5.85532 41.8009C6.55856 41.9152 7.26946 41.9773 7.98207 41.9866C8.31011 41.9937 8.63244 41.9978 8.95736 41.9978C9.3455 41.9999 9.73004 41.9999 10.1192 41.9999H116.887C117.268 41.9999 117.656 41.9999 118.037 41.9978C118.36 41.9978 118.692 41.9937 119.015 41.9866C119.727 41.9778 120.436 41.9157 121.138 41.8009C121.842 41.6805 122.525 41.4573 123.163 41.1386C123.798 40.8195 124.378 40.4016 124.88 39.9009C125.385 39.4045 125.808 38.8325 126.134 38.2059C126.454 37.5763 126.676 36.9021 126.791 36.2064C126.909 35.5116 126.975 34.8089 126.988 34.1044C126.992 33.7783 126.992 33.4624 126.992 33.1364C127 32.755 127 32.3756 127 31.9879V10.0128C127 9.62831 127 9.24686 126.992 8.86645C126.992 8.54448 126.992 8.22148 126.988 7.8995C126.975 7.19494 126.909 6.49229 126.791 5.7974C126.675 5.10214 126.454 4.42827 126.134 3.79892C125.478 2.53585 124.44 1.50772 123.163 0.859128C122.525 0.541238 121.842 0.319345 121.138 0.200778C120.436 0.0850503 119.727 0.0230005 119.015 0.0151804C118.692 0.0100564 118.36 0.00390336 118.037 0.00185586C117.656 -0.000244141 117.268 -0.000244141 116.887 -0.000244141V-0.000107641Z" fill="#A6A6A6"/>
<path d="M8.96228 41.0812C8.63892 41.0812 8.32337 41.0771 8.00255 41.07C7.33794 41.0614 6.67489 41.0042 6.01882 40.8987C5.40708 40.7945 4.81446 40.6006 4.26052 40.3234C3.71165 40.0486 3.21105 39.6881 2.77787 39.256C2.33843 38.8289 1.97257 38.3336 1.6948 37.7897C1.41397 37.2422 1.21962 36.6554 1.11851 36.0496C1.00933 35.3987 0.95026 34.7406 0.941807 34.0809C0.935078 33.8594 0.92627 33.1221 0.92627 33.1221V8.86651C0.92627 8.86651 0.935652 8.14053 0.94186 7.92724C0.949953 7.26856 1.00868 6.61144 1.11754 5.96157C1.21883 5.35416 1.41333 4.76564 1.69431 4.21636C1.97107 3.67279 2.33489 3.1771 2.77169 2.74852C3.20799 2.31585 3.7102 1.95359 4.26 1.67492C4.81267 1.39865 5.40416 1.20612 6.01467 1.10378C6.67289 0.997279 7.33825 0.939697 8.00516 0.931522L8.9628 0.918701H118.032L119.001 0.932036C119.661 0.939805 120.321 0.996874 120.973 1.10276C121.59 1.20638 122.187 1.40025 122.746 1.678C123.848 2.23959 124.744 3.12807 125.309 4.21893C125.586 4.76441 125.777 5.34813 125.877 5.95029C125.987 6.60549 126.049 7.26778 126.062 7.93186C126.065 8.22922 126.065 8.54863 126.065 8.86651C126.073 9.26026 126.073 9.63504 126.073 10.0129V31.988C126.073 32.3695 126.073 32.7417 126.065 33.117C126.065 33.4584 126.065 33.7712 126.061 34.0931C126.048 34.7454 125.988 35.3958 125.879 36.0393C125.78 36.6494 125.587 37.2408 125.306 37.7928C125.027 38.3309 124.663 38.8219 124.228 39.2478C123.795 39.6823 123.293 40.0448 122.743 40.3214C122.186 40.6007 121.589 40.7953 120.973 40.8987C120.317 41.0047 119.654 41.062 118.989 41.07C118.678 41.0771 118.353 41.0812 118.037 41.0812L116.886 41.0833L8.96228 41.0812Z" fill="black"/>
<path d="M26.2875 21.3157C26.2989 20.4393 26.5342 19.58 26.9714 18.8177C27.4087 18.0555 28.0338 17.4151 28.7885 16.956C28.3091 16.2786 27.6766 15.7211 26.9413 15.3278C26.206 14.9346 25.3881 14.7163 24.5526 14.6905C22.7705 14.5054 21.0427 15.7455 20.1345 15.7455C19.2088 15.7455 17.8105 14.7088 16.3048 14.7395C15.3309 14.7706 14.3817 15.0508 13.5498 15.5528C12.7179 16.0547 12.0315 16.7613 11.5577 17.6037C9.50514 21.1196 11.0362 26.2867 13.0023 29.1286C13.9861 30.5203 15.1358 32.0747 16.6401 32.0196C18.1122 31.9592 18.662 31.0909 20.4389 31.0909C22.1994 31.0909 22.7152 32.0196 24.2501 31.9846C25.8297 31.9592 26.8249 30.5867 27.7742 29.182C28.481 28.1904 29.0248 27.0945 29.3857 25.9348C28.4679 25.5508 27.6848 24.908 27.1338 24.0866C26.5829 23.2652 26.2885 22.3015 26.2875 21.3157Z" fill="white"/>
<path d="M23.3885 12.8214C24.2497 11.7985 24.6741 10.4837 24.5713 9.15625C23.2555 9.29298 22.04 9.91517 21.1671 10.8988C20.7403 11.3794 20.4134 11.9384 20.2051 12.5441C19.9969 13.1497 19.9113 13.7899 19.9533 14.4283C20.6114 14.435 21.2625 14.2939 21.8576 14.0155C22.4526 13.7372 22.976 13.3289 23.3885 12.8214Z" fill="white"/>
<path d="M44.8959 28.4966H39.8723L38.6659 32.0208H36.5381L41.2963 18.9819H43.507L48.2653 32.0208H46.1012L44.8959 28.4966ZM40.3926 26.8703H44.3746L42.4116 21.1507H42.3566L40.3926 26.8703Z" fill="white"/>
<path d="M58.5414 27.2683C58.5414 30.2224 56.9432 32.1204 54.5315 32.1204C53.9205 32.152 53.3129 32.0128 52.7782 31.7186C52.2436 31.4245 51.8034 30.9873 51.5082 30.4572H51.4626V35.1658H49.4902V22.5145H51.3994V24.0957H51.4356C51.7444 23.5681 52.192 23.1332 52.7308 22.8373C53.2695 22.5413 53.8793 22.3954 54.4952 22.4151C56.9339 22.4151 58.5414 24.3223 58.5414 27.2683ZM56.5141 27.2683C56.5141 25.3436 55.5088 24.0783 53.9749 24.0783C52.4679 24.0783 51.4543 25.3703 51.4543 27.2683C51.4543 29.1837 52.4679 30.4665 53.9749 30.4665C55.5088 30.4665 56.5141 29.2104 56.5141 27.2683Z" fill="white"/>
<path d="M69.1171 27.2683C69.1171 30.2224 67.5189 32.1204 65.1072 32.1204C64.4962 32.152 63.8886 32.0128 63.3539 31.7186C62.8193 31.4245 62.3791 30.9873 62.0839 30.4572H62.0382V35.1658H60.0659V22.5145H61.975V24.0957H62.0113C62.3201 23.5681 62.7677 23.1332 63.3064 22.8373C63.8452 22.5413 64.4549 22.3954 65.0708 22.4151C67.5096 22.4151 69.1171 24.3223 69.1171 27.2683ZM67.0898 27.2683C67.0898 25.3436 66.0845 24.0783 64.5506 24.0783C63.0436 24.0783 62.03 25.3703 62.03 27.2683C62.03 29.1837 63.0436 30.4664 64.5506 30.4664C66.0845 30.4664 67.0898 29.2103 67.0898 27.2683H67.0898Z" fill="white"/>
<path d="M76.1069 28.388C76.253 29.681 77.5227 30.53 79.2576 30.53C80.9201 30.53 82.1161 29.681 82.1161 28.5151C82.1161 27.503 81.3948 26.897 79.6867 26.4818L77.9787 26.0747C75.5586 25.4963 74.4351 24.3766 74.4351 22.5596C74.4351 20.3099 76.4168 18.7646 79.2307 18.7646C82.0156 18.7646 83.9247 20.3099 83.989 22.5596H81.9979C81.8788 21.2584 80.7915 20.473 79.2027 20.473C77.6138 20.473 76.5266 21.2676 76.5266 22.4243C76.5266 23.3461 77.221 23.8885 78.9197 24.3038L80.3718 24.6565C83.0758 25.2892 84.1993 26.3638 84.1993 28.271C84.1993 30.7104 82.2353 32.2383 79.1115 32.2383C76.1887 32.2383 74.2154 30.7463 74.0879 28.3879L76.1069 28.388Z" fill="white"/>
<path d="M88.4559 20.2649V22.5146H90.2831V24.0599H88.4559V29.3006C88.4559 30.1148 88.8218 30.4942 89.625 30.4942C89.8419 30.4904 90.0585 30.4754 90.2738 30.449V31.9851C89.9127 32.0518 89.5456 32.0821 89.1783 32.0753C87.2329 32.0753 86.4742 31.3524 86.4742 29.5088V24.0599H85.0771V22.5146H86.4742V20.2649H88.4559Z" fill="white"/>
<path d="M91.3413 27.2683C91.3413 24.2772 93.1219 22.3977 95.8985 22.3977C98.6844 22.3977 100.457 24.2772 100.457 27.2683C100.457 30.2676 98.6937 32.1389 95.8985 32.1389C93.1042 32.1389 91.3413 30.2676 91.3413 27.2683ZM98.4471 27.2683C98.4471 25.2165 97.4967 24.0055 95.8985 24.0055C94.3003 24.0055 93.3509 25.2257 93.3509 27.2683C93.3509 29.3283 94.3003 30.5301 95.8985 30.5301C97.4967 30.5301 98.447 29.3283 98.447 27.2683H98.4471Z" fill="white"/>
<path d="M102.083 22.5145H103.964V24.1325H104.01C104.137 23.6272 104.436 23.1806 104.857 22.8678C105.278 22.555 105.795 22.3951 106.321 22.415C106.548 22.4142 106.775 22.4386 106.997 22.4878V24.313C106.71 24.2262 106.41 24.1864 106.111 24.1951C105.824 24.1836 105.538 24.2336 105.273 24.3416C105.008 24.4496 104.77 24.6131 104.574 24.8209C104.379 25.0287 104.232 25.2758 104.142 25.5453C104.052 25.8148 104.023 26.1003 104.055 26.3822V32.0208H102.083L102.083 22.5145Z" fill="white"/>
<path d="M116.091 29.2289C115.825 30.9546 114.126 32.1389 111.953 32.1389C109.158 32.1389 107.423 30.286 107.423 27.3134C107.423 24.3316 109.167 22.3977 111.87 22.3977C114.529 22.3977 116.2 24.2044 116.2 27.0868V27.7554H109.414V27.8733C109.383 28.2231 109.427 28.5756 109.544 28.9072C109.661 29.2389 109.848 29.5421 110.092 29.7968C110.337 30.0514 110.633 30.2517 110.962 30.3844C111.29 30.517 111.644 30.5789 111.999 30.566C112.465 30.6092 112.933 30.5024 113.332 30.2615C113.732 30.0205 114.043 29.6584 114.218 29.2288L116.091 29.2289ZM109.423 26.3916H114.227C114.245 26.077 114.197 25.7622 114.085 25.467C113.974 25.1717 113.803 24.9023 113.581 24.6758C113.36 24.4492 113.094 24.2704 112.799 24.1504C112.505 24.0305 112.189 23.9721 111.87 23.9789C111.549 23.977 111.231 24.038 110.933 24.1585C110.636 24.279 110.366 24.4565 110.139 24.6808C109.911 24.9051 109.731 25.1718 109.608 25.4654C109.485 25.7591 109.422 26.0738 109.423 26.3916V26.3916Z" fill="white"/>
<path d="M40.1453 9.16727C40.5588 9.13791 40.9737 9.19971 41.3602 9.34822C41.7466 9.49672 42.0949 9.72822 42.3799 10.026C42.665 10.3238 42.8797 10.6805 43.0085 11.0704C43.1374 11.4602 43.1772 11.8735 43.125 12.2803C43.125 14.2819 42.0316 15.4324 40.1453 15.4324H37.8579V9.16727H40.1453ZM38.8415 14.5464H40.0354C40.3309 14.5639 40.6266 14.516 40.901 14.4061C41.1754 14.2963 41.4216 14.1273 41.6216 13.9114C41.8216 13.6956 41.9705 13.4383 42.0574 13.1584C42.1443 12.8784 42.167 12.5828 42.1238 12.2931C42.1639 12.0045 42.1389 11.7108 42.0506 11.4329C41.9624 11.155 41.8132 10.8998 41.6136 10.6857C41.414 10.4716 41.169 10.3038 40.8962 10.1943C40.6233 10.0849 40.3294 10.0365 40.0354 10.0526H38.8415V14.5464Z" fill="white"/>
<path d="M44.2362 13.0665C44.2062 12.7558 44.2421 12.4423 44.3417 12.1461C44.4413 11.8499 44.6024 11.5776 44.8146 11.3466C45.0268 11.1157 45.2854 10.9311 45.5739 10.8048C45.8625 10.6785 46.1745 10.6133 46.49 10.6133C46.8055 10.6133 47.1175 10.6785 47.406 10.8048C47.6945 10.9311 47.9532 11.1157 48.1654 11.3466C48.3776 11.5776 48.5386 11.8499 48.6382 12.1461C48.7378 12.4423 48.7737 12.7558 48.7437 13.0665C48.7743 13.3775 48.7388 13.6914 48.6395 13.9881C48.5401 14.2847 48.3792 14.5576 48.1669 14.789C47.9547 15.0204 47.6958 15.2054 47.407 15.3319C47.1182 15.4585 46.8058 15.5239 46.49 15.5239C46.1741 15.5239 45.8617 15.4585 45.5729 15.3319C45.2841 15.2054 45.0253 15.0204 44.813 14.789C44.6008 14.5576 44.4398 14.2847 44.3405 13.9881C44.2411 13.6914 44.2056 13.3775 44.2362 13.0665ZM47.7736 13.0665C47.7736 12.0416 47.3082 11.4423 46.4915 11.4423C45.6717 11.4423 45.2105 12.0416 45.2105 13.0665C45.2105 14.0996 45.6717 14.6943 46.4915 14.6943C47.3082 14.6943 47.7736 14.0955 47.7736 13.0665H47.7736Z" fill="white"/>
<path d="M54.735 15.4324H53.7566L52.7689 11.9502H52.6943L51.7107 15.4324H50.7416L49.4243 10.7043H50.3809L51.237 14.3121H51.3075L52.2901 10.7043H53.1949L54.1774 14.3121H54.252L55.104 10.7043H56.0471L54.735 15.4324Z" fill="white"/>
<path d="M57.1553 10.7043H58.0632V11.4554H58.1337C58.2532 11.1856 58.4549 10.9595 58.7105 10.8085C58.9662 10.6575 59.263 10.5892 59.5598 10.6131C59.7923 10.5958 60.0258 10.6304 60.2429 10.7145C60.4601 10.7986 60.6553 10.93 60.8142 11.0989C60.973 11.2678 61.0915 11.4699 61.1606 11.6902C61.2298 11.9105 61.2481 12.1434 61.2139 12.3716V15.4323H60.2708V12.6059C60.2708 11.8461 59.9371 11.4682 59.2395 11.4682C59.0817 11.461 58.9241 11.4875 58.7775 11.5462C58.631 11.6048 58.499 11.6941 58.3907 11.8079C58.2823 11.9217 58.2 12.0573 58.1496 12.2055C58.0992 12.3537 58.0817 12.5109 58.0984 12.6664V15.4324H57.1553L57.1553 10.7043Z" fill="white"/>
<path d="M62.7168 8.85864H63.66V15.4324H62.7168V8.85864Z" fill="white"/>
<path d="M64.9711 13.0663C64.9411 12.7556 64.977 12.4421 65.0766 12.1459C65.1762 11.8497 65.3373 11.5774 65.5496 11.3464C65.7618 11.1154 66.0204 10.9309 66.309 10.8046C66.5975 10.6783 66.9095 10.613 67.2251 10.613C67.5406 10.613 67.8526 10.6783 68.1411 10.8046C68.4297 10.9309 68.6883 11.1154 68.9006 11.3464C69.1128 11.5774 69.2739 11.8497 69.3735 12.1459C69.4731 12.4421 69.509 12.7556 69.479 13.0663C69.5096 13.3774 69.4741 13.6913 69.3747 13.988C69.2754 14.2846 69.1144 14.5574 68.9021 14.7888C68.6898 15.0203 68.4309 15.2052 68.1421 15.3317C67.8533 15.4583 67.5409 15.5237 67.2251 15.5237C66.9092 15.5237 66.5968 15.4583 66.308 15.3317C66.0192 15.2052 65.7603 15.0203 65.548 14.7888C65.3358 14.5574 65.1748 14.2846 65.0754 13.988C64.976 13.6913 64.9405 13.3774 64.9711 13.0663ZM68.5084 13.0663C68.5084 12.0414 68.043 11.4421 67.2264 11.4421C66.4065 11.4421 65.9454 12.0414 65.9454 13.0663C65.9454 14.0994 66.4066 14.6941 67.2264 14.6941C68.0431 14.6941 68.5084 14.0953 68.5084 13.0663H68.5084Z" fill="white"/>
<path d="M70.4717 14.0953C70.4717 13.2442 71.1122 12.7535 72.2491 12.6838L73.5437 12.61V12.2019C73.5437 11.7025 73.2099 11.4205 72.5653 11.4205C72.0388 11.4205 71.6739 11.6118 71.5693 11.946H70.6562C70.7526 11.1339 71.5247 10.613 72.6088 10.613C73.8069 10.613 74.4827 11.2031 74.4827 12.2019V15.4324H73.5747V14.7679H73.5001C73.3487 15.0063 73.136 15.2006 72.8838 15.331C72.6316 15.4614 72.3489 15.5233 72.0647 15.5103C71.864 15.5309 71.6613 15.5097 71.4694 15.4481C71.2776 15.3865 71.1009 15.2857 70.9508 15.1524C70.8008 15.0191 70.6806 14.8562 70.5981 14.6741C70.5155 14.492 70.4725 14.2948 70.4717 14.0953ZM73.5437 13.6912V13.296L72.3766 13.3698C71.7185 13.4134 71.42 13.6349 71.42 14.0517C71.42 14.4772 71.7931 14.7248 72.3062 14.7248C72.4565 14.7399 72.6084 14.7249 72.7527 14.6807C72.8971 14.6365 73.0309 14.564 73.1464 14.4676C73.2618 14.3711 73.3565 14.2527 73.4248 14.1194C73.493 13.986 73.5334 13.8404 73.5437 13.6912Z" fill="white"/>
<path d="M75.7222 13.0663C75.7222 11.5724 76.4985 10.6259 77.7059 10.6259C78.0046 10.6123 78.301 10.6831 78.5605 10.83C78.82 10.9769 79.0319 11.1938 79.1714 11.4554H79.2419V8.85864H80.185V15.4324H79.2813V14.6854H79.2067C79.0564 14.9453 78.8371 15.1595 78.5726 15.3049C78.308 15.4503 78.0083 15.5214 77.7059 15.5103C76.4902 15.5104 75.7222 14.5639 75.7222 13.0663ZM76.6964 13.0663C76.6964 14.0692 77.1742 14.6726 77.9733 14.6726C78.7683 14.6726 79.2595 14.0605 79.2595 13.0705C79.2595 12.0851 78.7631 11.4642 77.9733 11.4642C77.1794 11.4642 76.6964 12.0717 76.6964 13.0663H76.6964Z" fill="white"/>
<path d="M84.0873 13.0665C84.0573 12.7558 84.0932 12.4423 84.1928 12.1461C84.2924 11.8499 84.4535 11.5776 84.6657 11.3466C84.8779 11.1157 85.1365 10.9311 85.425 10.8048C85.7135 10.6785 86.0255 10.6133 86.341 10.6133C86.6565 10.6133 86.9685 10.6785 87.2571 10.8048C87.5456 10.9311 87.8042 11.1157 88.0164 11.3466C88.2286 11.5776 88.3897 11.8499 88.4893 12.1461C88.5889 12.4423 88.6248 12.7558 88.5948 13.0665C88.6254 13.3775 88.5899 13.6914 88.4905 13.9881C88.3912 14.2847 88.2303 14.5576 88.018 14.789C87.8057 15.0204 87.5469 15.2054 87.2581 15.3319C86.9693 15.4585 86.6569 15.5239 86.341 15.5239C86.0252 15.5239 85.7128 15.4585 85.424 15.3319C85.1352 15.2054 84.8763 15.0204 84.6641 14.789C84.4518 14.5576 84.2909 14.2847 84.1915 13.9881C84.0922 13.6914 84.0567 13.3775 84.0873 13.0665ZM87.6247 13.0665C87.6247 12.0416 87.1593 11.4423 86.3426 11.4423C85.5228 11.4423 85.0616 12.0416 85.0616 13.0665C85.0616 14.0996 85.5228 14.6943 86.3426 14.6943C87.1593 14.6943 87.6247 14.0955 87.6247 13.0665Z" fill="white"/>
<path d="M89.8604 10.7043H90.7683V11.4554H90.8387C90.9583 11.1856 91.16 10.9595 91.4156 10.8085C91.6712 10.6575 91.9681 10.5892 92.2649 10.6131C92.4974 10.5958 92.7309 10.6304 92.948 10.7145C93.1652 10.7986 93.3604 10.93 93.5193 11.0989C93.6781 11.2678 93.7965 11.4699 93.8657 11.6902C93.9349 11.9105 93.9531 12.1434 93.919 12.3716V15.4323H92.9759V12.6059C92.9759 11.8461 92.6421 11.4682 91.9446 11.4682C91.7867 11.461 91.6291 11.4875 91.4826 11.5462C91.3361 11.6048 91.2041 11.6941 91.0957 11.8079C90.9873 11.9217 90.9051 12.0573 90.8547 12.2055C90.8042 12.3537 90.7868 12.5109 90.8035 12.6664V15.4324H89.8604V10.7043Z" fill="white"/>
<path d="M99.2483 9.5271V10.7258H100.284V11.5117H99.2483V13.9429C99.2483 14.4382 99.4545 14.6551 99.924 14.6551C100.044 14.6547 100.164 14.6475 100.284 14.6335V15.4108C100.114 15.4408 99.9427 15.4567 99.7706 15.4585C98.7218 15.4585 98.3041 15.0934 98.3041 14.1819V11.5117H97.5454V10.7257H98.3041V9.5271H99.2483Z" fill="white"/>
<path d="M101.572 8.85864H102.507V11.4642H102.581C102.707 11.1919 102.914 10.9645 103.175 10.8129C103.435 10.6613 103.737 10.593 104.038 10.6172C104.27 10.6047 104.501 10.6429 104.716 10.7291C104.93 10.8152 105.123 10.9472 105.28 11.1155C105.438 11.2839 105.555 11.4845 105.625 11.703C105.695 11.9216 105.715 12.1527 105.684 12.3798V15.4324H104.74V12.61C104.74 11.8548 104.385 11.4724 103.718 11.4724C103.556 11.4592 103.393 11.4812 103.241 11.537C103.088 11.5927 102.949 11.6807 102.835 11.7949C102.72 11.909 102.632 12.0466 102.577 12.1979C102.522 12.3493 102.501 12.5108 102.515 12.671V15.4324H101.572L101.572 8.85864Z" fill="white"/>
<path d="M111.184 14.1558C111.056 14.588 110.778 14.9617 110.4 15.2118C110.021 15.4619 109.566 15.5723 109.113 15.5237C108.798 15.5319 108.485 15.4723 108.196 15.3489C107.907 15.2255 107.648 15.0413 107.438 14.8091C107.228 14.5769 107.072 14.3022 106.98 14.0042C106.888 13.7062 106.863 13.392 106.906 13.0833C106.864 12.7737 106.89 12.4587 106.981 12.1598C107.073 11.8609 107.229 11.585 107.438 11.3508C107.647 11.1166 107.904 10.9295 108.192 10.8022C108.481 10.6749 108.793 10.6105 109.109 10.6131C110.439 10.6131 111.241 11.5119 111.241 12.9966V13.3222H107.866V13.3745C107.852 13.548 107.874 13.7227 107.931 13.8872C107.989 14.0518 108.08 14.2027 108.2 14.3303C108.32 14.4578 108.465 14.5591 108.627 14.6278C108.789 14.6965 108.963 14.7309 109.139 14.729C109.365 14.7558 109.593 14.7156 109.796 14.6135C109.998 14.5115 110.165 14.3521 110.276 14.1558L111.184 14.1558ZM107.866 12.6321H110.28C110.292 12.4734 110.27 12.314 110.216 12.1642C110.162 12.0143 110.077 11.8773 109.966 11.762C109.855 11.6466 109.721 11.5555 109.573 11.4944C109.424 11.4333 109.265 11.4036 109.104 11.4073C108.941 11.4053 108.779 11.4356 108.628 11.4964C108.477 11.5572 108.339 11.6474 108.224 11.7615C108.109 11.8757 108.018 12.0115 107.956 12.161C107.895 12.3106 107.864 12.4707 107.866 12.6321H107.866Z" fill="white"/>
</svg>
