<svg width="142" height="42" viewBox="0 0 142 42" fill="none" xmlns="http://www.w3.org/2000/svg">
<g clip-path="url(#clip0_2743_1731)">
<path d="M136.741 0H5.25926C2.35465 0 0 2.3505 0 5.25V36.75C0 39.6495 2.35465 42 5.25926 42H136.741C139.645 42 142 39.6495 142 36.75V5.25C142 2.3505 139.645 0 136.741 0Z" fill="black"/>
<path d="M136.741 0.84C139.181 0.84 141.159 2.814 141.159 5.25V36.75C141.159 39.186 139.181 41.16 136.741 41.16H5.25926C2.81896 41.16 0.841482 39.186 0.841482 36.75V5.25C0.841482 2.814 2.81896 0.84 5.25926 0.84H136.741ZM136.741 0H5.25926C2.36667 0 0 2.3625 0 5.25V36.75C0 39.6375 2.36667 42 5.25926 42H136.741C139.633 42 142 39.6375 142 36.75V5.25C142 2.3625 139.633 0 136.741 0Z" fill="#A6A6A6"/>
<path d="M49.8789 10.752C49.8789 11.634 49.6159 12.3375 49.09 12.852C48.5009 13.4715 47.7331 13.7865 46.7759 13.7865C45.8187 13.7865 45.0824 13.4715 44.4513 12.8415C43.8202 12.2115 43.5046 11.424 43.5046 10.5C43.5046 9.576 43.8202 8.7885 44.4513 8.1585C45.0824 7.5285 45.8608 7.203 46.7759 7.203C47.2387 7.203 47.6805 7.287 48.0907 7.4445C48.5009 7.6125 48.8375 7.8435 49.1005 8.1375L48.522 8.715C48.3326 8.484 48.0802 8.295 47.7646 8.169C47.4596 8.0325 47.123 7.9695 46.7759 7.9695C46.0922 7.9695 45.5032 8.211 45.0298 8.6835C44.5565 9.1665 44.3251 9.765 44.3251 10.4895C44.3251 11.214 44.5565 11.8125 45.0298 12.2955C45.5032 12.768 46.0817 13.0095 46.7759 13.0095C47.407 13.0095 47.9224 12.831 48.3432 12.4845C48.7639 12.138 49.0058 11.6445 49.0689 11.0355H46.7759V10.2795H49.8368C49.8683 10.4475 49.8789 10.605 49.8789 10.752Z" fill="white" stroke="white" stroke-width="0.2" stroke-miterlimit="10"/>
<path d="M54.7279 7.34998V8.12698H51.8563V10.122H54.4439V10.878H51.8563V12.873H54.7279V13.65H51.0464V7.34998H54.7279Z" fill="white" stroke="white" stroke-width="0.2" stroke-miterlimit="10"/>
<path d="M58.1464 8.12698V13.65H57.3364V8.12698H55.5693V7.34998H59.903V8.12698H58.1359H58.1464Z" fill="white" stroke="white" stroke-width="0.2" stroke-miterlimit="10"/>
<path d="M63.8579 13.65H63.048V7.34998H63.8579V13.65Z" fill="white" stroke="white" stroke-width="0.2" stroke-miterlimit="10"/>
<path d="M67.4552 8.12698V13.65H66.6453V8.12698H64.8782V7.34998H69.2118V8.12698H67.4447H67.4552Z" fill="white" stroke="white" stroke-width="0.2" stroke-miterlimit="10"/>
<path d="M78.3525 10.5C78.3525 11.4345 78.0369 12.2115 77.4163 12.8415C76.7852 13.4715 76.0174 13.7865 75.1023 13.7865C74.1872 13.7865 73.4193 13.4715 72.7882 12.8415C72.1676 12.2115 71.8521 11.4345 71.8521 10.5C71.8521 9.5655 72.1676 8.7885 72.7882 8.1585C73.4088 7.5285 74.1766 7.203 75.1023 7.203C76.0279 7.203 76.7852 7.518 77.4163 8.1585C78.0369 8.7885 78.3525 9.5655 78.3525 10.4895V10.5ZM72.6935 10.5C72.6935 11.2245 72.9249 11.8335 73.3772 12.306C73.8401 12.7785 74.4186 13.02 75.1023 13.02C75.786 13.02 76.3645 12.7785 76.8168 12.306C77.2796 11.8335 77.511 11.235 77.511 10.5C77.511 9.765 77.2796 9.1665 76.8168 8.694C76.354 8.2215 75.786 7.98 75.1023 7.98C74.4186 7.98 73.8401 8.2215 73.3772 8.694C72.9144 9.1665 72.6935 9.7755 72.6935 10.5Z" fill="white" stroke="white" stroke-width="0.2" stroke-miterlimit="10"/>
<path d="M80.2983 13.65H79.4884V7.34998H80.4771L83.5486 12.2535H83.5801L83.5486 11.0355V7.34998H84.3585V13.65H83.517L80.3088 8.51548H80.2773L80.3088 9.73348V13.6605L80.2983 13.65Z" fill="white" stroke="white" stroke-width="0.2" stroke-miterlimit="10"/>
<path d="M71.6731 22.8375C69.2013 22.8375 67.1817 24.717 67.1817 27.3C67.1817 29.883 69.2013 31.7625 71.6731 31.7625C74.145 31.7625 76.1645 29.8725 76.1645 27.3C76.1645 24.7275 74.145 22.8375 71.6731 22.8375ZM71.6731 30.009C70.3162 30.009 69.1487 28.896 69.1487 27.3C69.1487 25.704 70.3162 24.591 71.6731 24.591C73.03 24.591 74.1976 25.6935 74.1976 27.3C74.1976 28.9065 73.03 30.009 71.6731 30.009ZM61.8804 22.8375C59.4085 22.8375 57.389 24.717 57.389 27.3C57.389 29.883 59.4085 31.7625 61.8804 31.7625C64.3522 31.7625 66.3718 29.8725 66.3718 27.3C66.3718 24.7275 64.3522 22.8375 61.8804 22.8375ZM61.8804 30.009C60.5235 30.009 59.3559 28.896 59.3559 27.3C59.3559 25.704 60.5235 24.591 61.8804 24.591C63.2373 24.591 64.4048 25.6935 64.4048 27.3C64.4048 28.9065 63.2373 30.009 61.8804 30.009ZM50.2259 24.2025V26.0925H54.7699C54.6331 27.153 54.2755 27.9405 53.7391 28.476C53.0764 29.1375 52.0456 29.862 50.2364 29.862C47.4385 29.862 45.2506 27.615 45.2506 24.822C45.2506 22.029 47.4385 19.782 50.2364 19.782C51.7405 19.782 52.845 20.37 53.6549 21.1365L54.9908 19.803C53.8548 18.7215 52.3506 17.892 50.2259 17.892C46.3971 17.892 43.1785 21 43.1785 24.8325C43.1785 28.665 46.3971 31.773 50.2259 31.773C52.298 31.773 53.8548 31.101 55.0749 29.8305C56.3266 28.581 56.7158 26.817 56.7158 25.3995C56.7158 24.9585 56.6842 24.549 56.6106 24.213H50.2259V24.2025ZM97.8853 25.6725C97.5171 24.675 96.3811 22.827 94.0565 22.827C91.7319 22.827 89.8386 24.633 89.8386 27.2895C89.8386 29.7885 91.7319 31.752 94.2774 31.752C96.3285 31.752 97.5171 30.5025 98.001 29.778L96.4758 28.7595C95.9709 29.505 95.2767 29.9985 94.2774 29.9985C93.2782 29.9985 92.5629 29.547 92.1106 28.644L98.0957 26.1765L97.8958 25.6725H97.8853ZM91.7845 27.1635C91.732 25.4415 93.1204 24.5595 94.1197 24.5595C94.898 24.5595 95.5607 24.948 95.7816 25.5045L91.7845 27.1635ZM86.925 31.4895H88.892V18.3645H86.925V31.4895ZM83.7063 23.8245H83.6432C83.2014 23.2995 82.3599 22.827 81.2871 22.827C79.0466 22.827 76.9955 24.7905 76.9955 27.3105C76.9955 29.8305 79.0466 31.7625 81.2871 31.7625C82.3494 31.7625 83.2014 31.29 83.6432 30.744H83.7063V31.3845C83.7063 33.096 82.7912 34.0095 81.3186 34.0095C80.1195 34.0095 79.3727 33.1485 79.0677 32.424L77.3531 33.138C77.8475 34.3245 79.1518 35.7735 81.3186 35.7735C83.6222 35.7735 85.5681 34.419 85.5681 31.122V23.1H83.7063V23.8245ZM81.4554 29.9985C80.0985 29.9985 78.9625 28.8645 78.9625 27.3105C78.9625 25.7565 80.0985 24.591 81.4554 24.591C82.8122 24.591 83.8431 25.746 83.8431 27.3105C83.8431 28.875 82.7912 29.9985 81.4554 29.9985ZM107.1 18.3645H102.398V31.4895H104.365V26.5125H107.11C109.287 26.5125 111.423 24.9375 111.423 22.4385C111.423 19.9395 109.287 18.3645 107.11 18.3645H107.1ZM107.152 24.696H104.365V20.1915H107.152C108.625 20.1915 109.456 21.4095 109.456 22.4385C109.456 23.4675 108.625 24.6855 107.152 24.6855V24.696ZM119.28 22.806C117.86 22.806 116.387 23.436 115.777 24.8115L117.523 25.536C117.892 24.8115 118.586 24.57 119.312 24.57C120.321 24.57 121.363 25.179 121.373 26.2605V26.397C121.016 26.1975 120.258 25.893 119.322 25.893C117.439 25.893 115.535 26.922 115.535 28.8435C115.535 30.597 117.071 31.731 118.796 31.731C120.111 31.731 120.847 31.143 121.3 30.45H121.363V31.458H123.256V26.4285C123.256 24.0975 121.51 22.7955 119.259 22.7955L119.28 22.806ZM119.038 29.9985C118.396 29.9985 117.502 29.673 117.502 28.8855C117.502 27.8775 118.617 27.489 119.585 27.489C120.448 27.489 120.858 27.678 121.373 27.93C121.226 29.148 120.174 30.009 119.038 30.009V29.9985ZM130.167 23.0895L127.916 28.7805H127.853L125.517 23.0895H123.403L126.906 31.0485L124.907 35.469H126.958L132.354 23.0895H130.177H130.167ZM112.485 31.4895H114.452V18.3645H112.485V31.4895Z" fill="white"/>
<path d="M21.7944 20.391L10.5922 32.256C10.9393 33.5475 12.1173 34.4925 13.5163 34.4925C14.0738 34.4925 14.5997 34.3455 15.052 34.0725L15.0836 34.0515L27.6848 26.796L21.7839 20.3805L21.7944 20.391Z" fill="#EA4335"/>
<path d="M33.1228 18.375H33.1122L27.6742 15.2145L21.5419 20.664L27.6952 26.8065L33.1122 23.688C34.0589 23.1735 34.7005 22.176 34.7005 21.0315C34.7005 19.887 34.0694 18.8895 33.1228 18.3855V18.375Z" fill="#FBBC04"/>
<path d="M10.5921 9.74402C10.529 9.99602 10.4869 10.248 10.4869 10.521V31.4895C10.4869 31.7625 10.5185 32.0145 10.5921 32.2665L22.173 20.706L10.5921 9.74402Z" fill="#4285F4"/>
<path d="M21.8785 21L27.6742 15.2145L15.0836 7.92751C14.6313 7.65451 14.0948 7.49701 13.5163 7.49701C12.1173 7.49701 10.9393 8.45251 10.5922 9.73351L21.8785 20.9895V21Z" fill="#34A853"/>
</g>
<defs>
<clipPath id="clip0_2743_1731">
<rect width="142" height="42" fill="white"/>
</clipPath>
</defs>
</svg>
