<svg width="339" height="21" viewBox="0 0 339 21" fill="none" xmlns="http://www.w3.org/2000/svg">
<g clip-path="url(#clip0_9196_27)">
<path fill-rule="evenodd" clip-rule="evenodd" d="M328.827 18.1787H337.182C337.878 18.178 338.443 17.6107 338.444 16.9102V10.0697C338.444 9.36826 337.879 8.79948 337.182 8.79883H328.827C328.129 8.79948 327.565 9.36826 327.565 10.0697V16.9078C327.565 17.6092 328.129 18.178 328.827 18.1787ZM328.256 10.066C328.256 9.749 328.511 9.49186 328.826 9.49121L337.182 9.49475C337.497 9.4954 337.752 9.75234 337.753 10.0695V16.9065C337.752 17.2237 337.497 17.4806 337.182 17.4813H328.826C328.511 17.4806 328.256 17.2235 328.256 16.9065V10.066Z" fill="black"/>
<path d="M336.529 9.14268H335.837V7.52559C335.837 5.95178 334.568 4.67595 333.004 4.67595C331.439 4.67595 330.171 5.95178 330.171 7.52559V9.14268H329.48V7.52559C329.48 5.56768 331.058 3.98047 333.004 3.98047C334.951 3.98047 336.529 5.56768 336.529 7.52559V9.14268Z" fill="black"/>
<path fill-rule="evenodd" clip-rule="evenodd" d="M225.877 4.23507C225.391 4.01822 224.856 3.93452 224.327 3.99245H221.347V9.60927H222.635V7.56229H224.029C224.371 7.50961 224.72 7.59698 224.998 7.80491C225.177 8.13585 225.244 8.51579 225.191 8.88847V9.61045H226.509V8.48802C226.548 8.13603 226.465 7.78126 226.274 7.48338C226.11 7.27433 225.897 7.10894 225.655 7.00167C226.233 6.73858 226.598 6.15416 226.585 5.51649C226.609 4.98998 226.338 4.49419 225.882 4.23389L225.877 4.23507ZM244.018 9.60475H242.157L239.715 5.39184V9.60475H237.084L236.581 8.36102H233.862L233.358 9.60475H231.849C231.158 9.63833 230.479 9.40827 229.949 8.9605C229.467 8.36489 229.232 7.60591 229.291 6.84051C229.215 6.03912 229.469 5.24154 229.993 4.63335C230.535 4.1504 231.252 3.9176 231.972 3.99147H233.209V5.19869H231.967C231.602 5.16285 231.238 5.27905 230.961 5.52022C230.69 5.88931 230.565 6.34629 230.609 6.80282C230.572 7.27228 230.696 7.74036 230.961 8.12899C231.211 8.33344 231.53 8.43373 231.852 8.4093H232.437L234.3 3.99736H236.229L238.401 9.29735V3.99736H240.417L242.709 7.88402V3.99736H244.026V9.61417L244.018 9.60475ZM242.162 16.305C241.731 15.9709 241.191 15.8131 240.649 15.8633H239.947C239.776 15.8593 239.607 15.832 239.443 15.7821C239.28 15.7156 239.174 15.5561 239.175 15.3793C239.154 15.2069 239.229 15.0367 239.37 14.9364C239.526 14.8599 239.701 14.8316 239.873 14.8552H242.276V13.6491H239.679C239.2 13.583 238.718 13.7322 238.359 14.057C238 14.3818 237.802 14.8492 237.817 15.3345C237.817 16.9865 239.142 17.0227 240.294 17.0541C240.374 17.0563 240.453 17.0585 240.531 17.0612C240.696 17.0393 240.864 17.0814 240.999 17.1789C241.098 17.2901 241.153 17.4331 241.155 17.5817C241.152 17.718 241.096 17.8477 240.999 17.9433C240.848 18.0335 240.672 18.0746 240.496 18.0611H237.973V19.2683H240.491C241.808 19.2683 242.546 18.7053 242.546 17.5016C242.568 17.0653 242.431 16.636 242.16 16.2944L242.162 16.305ZM247.628 17.5122C247.628 18.7182 246.892 19.2789 245.574 19.2789H243.053V18.0705H245.574C245.75 18.0891 245.928 18.0476 246.078 17.9527C246.174 17.8565 246.23 17.7263 246.232 17.5899C246.231 17.4414 246.176 17.2983 246.078 17.1871C245.943 17.0898 245.775 17.0477 245.61 17.0693C245.533 17.0668 245.455 17.0647 245.377 17.0626C244.218 17.032 242.896 16.997 242.896 15.3439C242.886 14.8605 243.086 14.3966 243.443 14.073C243.8 13.7495 244.279 13.5981 244.756 13.6585H247.352V14.8645H244.941C244.769 14.8414 244.594 14.8696 244.438 14.9458C244.313 15.0588 244.243 15.22 244.245 15.3886C244.245 15.5651 244.351 15.7242 244.513 15.7914C244.677 15.8412 244.846 15.8686 245.017 15.8727H245.72C246.261 15.8222 246.801 15.98 247.232 16.3144C247.506 16.654 247.645 17.0844 247.621 17.5216L247.628 17.5122ZM234.143 18.1103H237.199L237.197 18.1115V19.2728H232.858V13.6489H237.203V14.8137H234.143V15.8631H237.126V16.9855H234.143V18.1103ZM231.461 13.9409C230.964 13.7107 230.416 13.6137 229.871 13.6594H226.885V19.2798H228.202V17.2317H229.599C230.068 17.2317 230.336 17.2717 230.528 17.4672C230.724 17.8072 230.806 18.2015 230.762 18.592V19.2751H232.041V18.1904C232.076 17.8311 232.009 17.4691 231.847 17.1469C231.335 17.0434 230.991 16.5566 231.063 16.0359C231.135 15.5153 231.597 15.1407 232.118 15.1811C232.169 14.6701 231.908 14.1787 231.457 13.9374L231.461 13.9409ZM219.954 13.6596H224.099L224.097 13.662C225.104 13.662 226.267 13.98 226.267 15.5111C226.267 17.0752 225.144 17.3955 224.02 17.3955H222.39V19.2799H219.871L218.283 17.4332L216.616 19.2799H211.465V13.6596H216.698L218.288 15.5064L219.954 13.6596ZM230.416 15.988C230.217 16.0573 230.006 16.0849 229.796 16.0693L228.207 16.1093V14.8244H229.796C230.01 14.7975 230.226 14.8387 230.416 14.9421C230.59 15.0367 230.695 15.2244 230.685 15.4239C230.686 15.6432 230.587 15.8509 230.416 15.9868V15.988ZM222.388 16.2684H224.098C224.306 16.2879 224.511 16.2149 224.66 16.0686C224.809 15.9224 224.887 15.7177 224.872 15.5088C224.872 15.0259 224.567 14.8256 224.098 14.8256H222.388V16.2684ZM219.096 16.464L221.112 14.2568V18.7901L219.096 16.464ZM212.742 18.1128H215.954L215.953 18.1117L217.427 16.4628L215.993 14.8139H212.738V15.8657H215.609V16.9881H212.742V18.1128ZM227.311 3.99267H228.629H228.63V9.60947H227.311V3.99267ZM220.406 8.44818H220.412L220.406 8.447V8.44818ZM217.388 8.44818H220.406V9.60947H216.064V3.99267H220.41V5.15749H217.388V6.15859H220.372V7.32341H217.388V8.44818ZM215.101 3.99121H212.969L211.38 7.80367L209.675 3.99121H207.58V9.2912L205.372 3.99121H203.445L201.117 9.60802H202.508L203.012 8.36429H205.725L206.228 9.60802H208.864V5.19843L210.764 9.61155H211.888L213.786 5.19843V9.61155H215.104L215.101 3.99121ZM235.221 4.95117L236.112 7.15834H234.33L235.221 4.95117ZM224.871 6.27621C224.669 6.37965 224.44 6.42062 224.215 6.39399H222.632V5.15616H224.223C224.445 5.13827 224.668 5.16592 224.88 5.23742C225.039 5.36051 225.127 5.55596 225.114 5.758C225.137 5.96172 225.047 6.16194 224.88 6.27857L224.871 6.27621ZM204.37 4.95117L203.48 7.15834H205.261L204.37 4.95117Z" fill="#0077A8"/>
<path fill-rule="evenodd" clip-rule="evenodd" d="M111.762 18.9288H108.25L110.445 5.1582H113.958L111.762 18.9288Z" fill="#00579E"/>
<path fill-rule="evenodd" clip-rule="evenodd" d="M123.084 5.72593C122.223 5.34802 121.293 5.15468 120.354 5.15825C117.35 5.15825 115.233 6.9732 115.221 9.56902C115.196 11.4841 116.735 12.5477 117.887 13.1849C119.058 13.8362 119.464 14.2637 119.464 14.8432C119.453 15.7371 118.514 16.1493 117.638 16.1493C116.64 16.1785 115.654 15.9342 114.783 15.4427L114.383 15.2295L113.957 18.221C115.027 18.6929 116.184 18.9336 117.352 18.9277C120.544 18.9277 122.621 17.141 122.647 14.3756C122.659 12.8586 121.846 11.695 120.093 10.7445C119.029 10.1344 118.377 9.72449 118.377 9.09556C118.39 8.52905 118.928 7.94722 120.133 7.94722C120.919 7.92285 121.698 8.09868 122.399 8.45838L122.673 8.59971L123.084 5.72593Z" fill="#00579E"/>
<path fill-rule="evenodd" clip-rule="evenodd" d="M129.468 5.1603H131.927L134.493 18.932H131.55C131.55 18.932 131.261 17.3491 131.169 16.8662H127.087C126.97 17.2325 126.42 18.932 126.42 18.932H123.085L127.807 6.30392C128.01 5.56665 128.711 5.08375 129.468 5.1603ZM129.272 10.1988L128.003 14.0525H130.645C130.514 13.3646 129.912 10.0668 129.912 10.0668L129.69 8.88086C129.595 9.19097 129.457 9.61931 129.366 9.90261C129.307 10.0873 129.267 10.2104 129.272 10.1988Z" fill="#00579E"/>
<path fill-rule="evenodd" clip-rule="evenodd" d="M105.973 5.1582L102.804 14.5581L102.453 12.6513C101.712 10.2414 100.121 8.18664 97.9807 6.87304L100.883 18.9288H104.304L109.389 5.1582H105.973Z" fill="#00579E"/>
<path fill-rule="evenodd" clip-rule="evenodd" d="M99.9124 5.15809H94.6202L94.5652 5.41367C98.1611 6.14291 101.157 8.63029 102.552 12.0434L101.401 6.22281C101.251 5.53567 100.607 5.07509 99.9124 5.15809Z" fill="#F9A51A"/>
<path fill-rule="evenodd" clip-rule="evenodd" d="M179.213 17.0723V18.9415V19.9779H178.767V19.7259C178.613 19.927 178.372 20.0403 178.12 20.0297C177.546 19.9968 177.097 19.5191 177.097 18.9409C177.097 18.3626 177.546 17.8849 178.12 17.852C178.372 17.8412 178.613 17.9546 178.767 18.1559V17.0723H179.213ZM162.487 17.9049V18.9413L162.489 19.9801H162.042V19.7281C161.889 19.9293 161.647 20.0427 161.395 20.0319C160.822 19.999 160.373 19.5213 160.373 18.9431C160.373 18.3649 160.822 17.8871 161.395 17.8542C161.646 17.8439 161.886 17.9568 162.039 18.1569V17.9049H162.487ZM160.826 18.9413C160.846 18.6016 161.133 18.3406 161.471 18.3541C161.809 18.3676 162.075 18.6505 162.068 18.9908C162.062 19.3311 161.786 19.6038 161.448 19.6044C161.276 19.6061 161.111 19.5356 160.993 19.41C160.875 19.2844 160.815 19.1149 160.826 18.9425V18.9413ZM180.037 19.6929C180.011 19.6818 179.983 19.6762 179.955 19.6764V19.6776C179.927 19.6772 179.9 19.6824 179.874 19.6929C179.825 19.7139 179.785 19.7537 179.764 19.8036C179.743 19.8544 179.743 19.9118 179.764 19.9626C179.785 20.0126 179.825 20.0523 179.874 20.0733C179.926 20.0947 179.985 20.0947 180.037 20.0733C180.087 20.0523 180.126 20.0126 180.147 19.9626C180.169 19.9118 180.169 19.8544 180.147 19.8036C180.126 19.7537 180.087 19.714 180.037 19.6929ZM179.955 20.0425C179.976 20.043 179.998 20.0389 180.017 20.0307C180.036 20.0226 180.053 20.0105 180.068 19.9954C180.129 19.9326 180.129 19.832 180.068 19.7693C180.053 19.7541 180.036 19.7421 180.017 19.7339C179.998 19.7257 179.976 19.7217 179.955 19.7222C179.934 19.7218 179.913 19.7258 179.893 19.7339C179.874 19.7416 179.856 19.7537 179.842 19.7693C179.827 19.7833 179.815 19.8006 179.808 19.8199C179.792 19.8596 179.792 19.9039 179.808 19.9436C179.815 19.9628 179.827 19.9802 179.842 19.9942C179.856 20.0098 179.874 20.0219 179.893 20.0296C179.913 20.0384 179.934 20.0433 179.955 20.0437V20.0425ZM179.968 19.7871C179.988 19.7857 180.008 19.7915 180.023 19.8036C180.037 19.8145 180.044 19.8311 180.043 19.8484C180.044 19.8631 180.038 19.8772 180.027 19.8872C180.015 19.8984 179.999 19.905 179.982 19.9061L180.043 19.9779H179.995L179.938 19.9061H179.919V19.9779H179.879V19.7883L179.968 19.7871ZM177.552 18.9413C177.572 18.6017 177.859 18.3408 178.197 18.3541C178.535 18.3673 178.8 18.6499 178.794 18.99C178.788 19.3302 178.513 19.6032 178.175 19.6044C178.003 19.6058 177.839 19.5352 177.721 19.4096C177.603 19.284 177.543 19.1147 177.554 18.9425L177.552 18.9413ZM168.021 18.2561C168.156 18.2533 168.287 18.3045 168.384 18.3986C168.482 18.4927 168.538 18.622 168.541 18.7578H167.476C167.493 18.4703 167.735 18.2485 168.021 18.2573V18.2561ZM166.994 18.9553C166.986 18.3663 167.445 17.8777 168.03 17.8521V17.8545C168.306 17.8571 168.569 17.9763 168.753 18.183C168.938 18.3897 169.028 18.6649 169.002 18.9416C169.002 18.9722 168.999 19.0019 168.997 19.031C168.995 19.0589 168.993 19.0864 168.993 19.1135H167.471C167.506 19.4218 167.778 19.6467 168.085 19.6211C168.302 19.6177 168.512 19.5415 168.682 19.4044L168.9 19.7389C168.665 19.937 168.365 20.0406 168.059 20.0298C167.474 20.0201 167.002 19.5442 166.994 18.9553ZM173.416 18.9414C173.437 18.6025 173.723 18.3427 174.06 18.3566C174.398 18.3704 174.662 18.6529 174.656 18.9924C174.649 19.3319 174.374 19.6038 174.036 19.6045C173.864 19.6072 173.698 19.5371 173.58 19.4113C173.461 19.2856 173.4 19.1155 173.412 18.9426L173.416 18.9414ZM175.076 17.9051V18.9416L175.072 19.9792H174.626V19.7272C174.472 19.9283 174.231 20.0416 173.979 20.031C173.405 19.9981 172.956 19.5204 172.956 18.9422C172.956 18.3639 173.405 17.8862 173.979 17.8533C174.231 17.8425 174.472 17.9559 174.626 18.1572V17.9051H175.076ZM170.898 18.9416C170.886 19.236 170.997 19.5221 171.206 19.7294C171.414 19.9366 171.7 20.0458 171.992 20.0299C172.26 20.0433 172.523 19.955 172.73 19.7825L172.515 19.4186C172.361 19.5371 172.173 19.6023 171.979 19.6047C171.63 19.5838 171.358 19.2931 171.358 18.9416C171.358 18.5901 171.63 18.2994 171.979 18.2785C172.173 18.2809 172.361 18.3462 172.515 18.4646L172.73 18.1007C172.523 17.9282 172.26 17.84 171.992 17.8534C171.699 17.8364 171.412 17.9452 171.203 18.1529C170.994 18.3605 170.882 18.6475 170.895 18.9428L170.898 18.9416ZM176.106 18.1557C176.217 17.9626 176.425 17.8461 176.647 17.8518L176.643 17.8542C176.753 17.8524 176.862 17.8699 176.965 17.906L176.828 18.3312C176.739 18.2952 176.644 18.2772 176.548 18.2782C176.256 18.2782 176.112 18.4702 176.112 18.8117V19.9742H175.664V17.9037H176.106V18.1557ZM164.695 18.0686C164.441 17.9171 164.149 17.8426 163.854 17.8543C163.335 17.8543 163.001 18.1063 163.001 18.5186C163.001 18.8566 163.25 19.065 163.703 19.1298L163.913 19.1604C164.158 19.1946 164.274 19.2606 164.274 19.3772C164.274 19.5373 164.111 19.628 163.805 19.628C163.56 19.6349 163.32 19.5586 163.123 19.4113L162.913 19.7646C163.173 19.9481 163.484 20.0426 163.802 20.0344C164.393 20.0344 164.738 19.7517 164.738 19.3571C164.738 18.9932 164.469 18.8024 164.022 18.7376L163.811 18.707C163.618 18.6811 163.46 18.6422 163.46 18.5032C163.46 18.3643 163.606 18.2606 163.85 18.2606C164.074 18.264 164.295 18.3252 164.489 18.4385L164.695 18.0686ZM169.907 18.1557C170.019 17.9623 170.226 17.8456 170.448 17.8519L170.445 17.8542C170.554 17.8527 170.663 17.8702 170.767 17.906L170.629 18.3312C170.54 18.2951 170.445 18.277 170.35 18.2782C170.058 18.2782 169.912 18.4702 169.912 18.8118V19.9742H169.466V17.9037H169.907V18.1557ZM166.643 17.9049H165.913V17.2759H165.464V17.9049H165.048V18.3171H165.464V19.2593C165.464 19.7399 165.649 20.0273 166.176 20.0273C166.373 20.0281 166.566 19.9725 166.733 19.8671L166.604 19.4808C166.485 19.5531 166.349 19.5937 166.21 19.5985C165.987 19.5985 165.913 19.4596 165.913 19.2511V18.3159H166.643V17.9049ZM159.977 18.6812V19.9768L159.522 19.9744V18.8214C159.522 18.4704 159.375 18.2749 159.072 18.2749C158.929 18.2684 158.79 18.3261 158.693 18.4325C158.596 18.5389 158.551 18.683 158.57 18.8261V19.9744H158.119V18.8214C158.119 18.4704 157.969 18.2749 157.673 18.2749C157.529 18.2671 157.39 18.3245 157.292 18.4312C157.195 18.5379 157.15 18.6828 157.171 18.8261V19.9744H156.72V17.9074H157.167V18.163C157.298 17.9605 157.526 17.8431 157.767 17.8544C158.045 17.8413 158.308 17.9841 158.449 18.2254C158.605 17.9795 158.881 17.8382 159.17 17.8568C159.39 17.8444 159.605 17.9277 159.759 18.0855C159.913 18.2433 159.993 18.4604 159.977 18.6812Z" fill="#231F20"/>
<path fill-rule="evenodd" clip-rule="evenodd" d="M180.319 12.8965V13.3782H180.254V13.0143L180.154 13.3276H180.086L179.985 13.0143V13.3782H179.919V12.8965H180.013L180.12 13.2274L180.226 12.8965H180.319ZM179.733 12.9788V13.3781H179.665V12.9788H179.548V12.8976H179.85V12.9788H179.733Z" fill="#F69310"/>
<path fill-rule="evenodd" clip-rule="evenodd" d="M171.32 14.3866H164.563V2.11523H171.32V14.3866Z" fill="#FF5F00"/>
<path fill-rule="evenodd" clip-rule="evenodd" d="M164.995 8.25135C164.991 5.85988 166.078 3.59869 167.944 2.1163C164.763 -0.399048 160.195 -0.0332563 157.45 2.95657C154.705 5.9464 154.705 10.5563 157.45 13.5462C160.195 16.536 164.763 16.9018 167.944 14.3864C166.078 12.9044 164.992 10.6436 164.995 8.25253" fill="#EA001B"/>
<path fill-rule="evenodd" clip-rule="evenodd" d="M180.432 8.2511C180.437 10.3161 179.626 12.2984 178.178 13.762C176.73 15.2255 174.763 16.0504 172.71 16.0551C170.977 16.0577 169.295 15.4693 167.938 14.3862C169.801 12.902 170.888 10.6422 170.888 8.2511C170.888 5.86007 169.801 3.60025 167.938 2.11604C170.265 0.268764 173.438 -0.0741338 176.101 1.23387C178.765 2.54186 180.448 5.26942 180.432 8.2511Z" fill="#F69D1B"/>
<path fill-rule="evenodd" clip-rule="evenodd" d="M49.5514 10.5298H47.6474C47.4657 10.5298 47.2949 10.6201 47.192 10.7712L44.566 14.64L43.4528 10.922C43.3829 10.6895 43.1682 10.5298 42.9251 10.5298H41.0542C40.8268 10.5298 40.6688 10.752 40.7414 10.9661L42.8384 17.1216L40.8667 19.9055C40.7116 20.1249 40.8678 20.4262 41.1357 20.4262H43.0376C43.2179 20.4262 43.387 20.3382 43.4894 20.1902L49.8222 11.0477C49.9737 10.829 49.8181 10.5298 49.5514 10.5298ZM39.4595 10.5294H37.5647C37.4033 10.5294 37.264 10.6476 37.239 10.8077L37.1552 11.3378L37.0226 11.1456C36.6125 10.5501 35.6978 10.3511 34.7848 10.3511C32.6911 10.3511 30.9028 11.9372 30.5545 14.1623C30.3734 15.2719 30.6309 16.3332 31.2603 17.0734C31.8377 17.7538 32.6638 18.0373 33.6469 18.0373C35.3339 18.0373 36.2694 16.9523 36.2694 16.9523L36.185 17.4789C36.153 17.6804 36.3081 17.8608 36.5101 17.8608H38.2168C38.4881 17.8608 38.7172 17.664 38.76 17.3962L39.784 10.9101C39.8166 10.7106 39.6619 10.5294 39.4595 10.5294ZM36.8188 14.2178C36.636 15.3003 35.7767 16.0271 34.6811 16.0271C34.1308 16.0271 33.6911 15.8507 33.4088 15.5162C33.1288 15.1841 33.0223 14.7113 33.1114 14.1847C33.2821 13.1115 34.1557 12.3609 35.2347 12.3609C35.7727 12.3609 36.2101 12.5398 36.4982 12.8771C36.787 13.2178 36.9014 13.6935 36.8188 14.2178ZM27.6327 6.86914H23.6759C23.4051 6.86914 23.1749 7.06575 23.1327 7.33318L21.5324 17.4807C21.5007 17.681 21.6556 17.8616 21.8588 17.8616H23.7477C24.0185 17.8616 24.2488 17.6648 24.2909 17.3969L24.7226 14.66C24.7641 14.3921 24.9951 14.1953 25.2652 14.1953H26.5179C29.1242 14.1953 30.6284 12.9339 31.0212 10.4341C31.1982 9.34054 31.0288 8.48119 30.5168 7.87939C29.9544 7.21859 28.957 6.86914 27.6327 6.86914ZM28.0888 10.5752C27.8724 11.9952 26.7877 11.9952 25.7386 11.9952H25.1416L25.5604 9.34324C25.5853 9.18294 25.7242 9.06494 25.8863 9.06494H26.1598C26.8743 9.06494 27.5483 9.06494 27.8966 9.47225C28.1043 9.71537 28.168 10.0765 28.0888 10.5752Z" fill="#253B80"/>
<mask id="mask0_9196_27" style="mask-type:luminance" maskUnits="userSpaceOnUse" x="49" y="6" width="24" height="13">
<path fill-rule="evenodd" clip-rule="evenodd" d="M49.7505 6.86914H72.398V18.0381H49.7505V6.86914Z" fill="white"/>
</mask>
<g mask="url(#mask0_9196_27)">
<path fill-rule="evenodd" clip-rule="evenodd" d="M69.915 7.14808L68.291 17.4813C68.2591 17.6817 68.4142 17.8622 68.6159 17.8622H70.2488C70.5201 17.8622 70.7504 17.6654 70.792 17.3975L72.3934 7.25052C72.4252 7.05019 72.2701 6.86914 72.0682 6.86914H70.24C70.0786 6.86979 69.9398 6.98779 69.915 7.14808ZM67.681 10.5302H65.7872C65.6247 10.5302 65.4865 10.6484 65.4622 10.8085L65.3784 11.3387L65.2453 11.1464C64.835 10.5511 63.921 10.3521 63.008 10.3521C60.9143 10.3521 59.1265 11.938 58.7782 14.1631C58.5977 15.2727 58.854 16.334 59.4835 17.0742C60.062 17.7546 60.887 18.0381 61.8699 18.0381C63.557 18.0381 64.4926 16.9533 64.4926 16.9533L64.4082 17.4799C64.3762 17.6812 64.5313 17.8616 64.7344 17.8616H66.4407C66.7108 17.8616 66.9409 17.6648 66.9832 17.3971L68.0077 10.9109C68.0392 10.7114 67.8841 10.5302 67.681 10.5302ZM65.0402 14.2188C64.8586 15.3012 63.9982 16.0281 62.9026 16.0281C62.3535 16.0281 61.9126 15.8516 61.6303 15.5171C61.3502 15.185 61.2449 14.7122 61.3329 14.1856C61.5048 13.1123 62.3772 12.3619 63.4563 12.3619C63.9942 12.3619 64.4315 12.5406 64.7197 12.8779C65.0096 13.2188 65.1242 13.6943 65.0402 14.2188ZM55.8543 6.86963H51.8971C51.6269 6.86963 51.3968 7.0664 51.3545 7.33367L49.7542 17.4812C49.7223 17.6815 49.8774 17.8621 50.0793 17.8621H52.11C52.2986 17.8621 52.46 17.7243 52.4895 17.5368L52.9436 14.6605C52.9853 14.3926 53.2162 14.1958 53.4863 14.1958H54.7384C57.3454 14.1958 58.8491 12.9344 59.2424 10.4346C59.42 9.34103 59.2493 8.48168 58.7372 7.87988C58.1756 7.21908 57.1786 6.86963 55.8543 6.86963ZM56.3112 10.5757C56.0953 11.9957 55.0105 11.9957 53.9611 11.9957H53.3645L53.7839 9.34373C53.8089 9.18359 53.9466 9.06543 54.1092 9.06543H54.3827C55.0967 9.06543 55.7714 9.06543 56.1196 9.47274C56.3272 9.71586 56.3904 10.077 56.3112 10.5757Z" fill="#179BD7"/>
</g>
<path fill-rule="evenodd" clip-rule="evenodd" d="M15.0049 7.99636C14.7955 7.75859 14.5356 7.56118 14.2319 7.40039C14.2157 7.50396 14.1972 7.6098 14.1765 7.71855C14.1567 7.82002 14.135 7.91888 14.1128 8.01662C13.3245 11.462 10.926 12.6631 7.88514 12.6631H6.29295C5.9105 12.6631 5.58833 12.9408 5.5287 13.3181L4.80674 17.8975L4.71356 18.4889L4.48279 19.9546C4.44406 20.2023 4.6348 20.4254 4.88485 20.4254H7.70882C8.04314 20.4254 8.32722 20.1825 8.37989 19.8527L8.4076 19.7092L8.9393 16.3346L8.9735 16.1493C9.02552 15.8183 9.31009 15.5754 9.64457 15.5754H10.0669C12.8029 15.5754 14.9446 14.4645 15.5708 11.2495C15.8322 9.90646 15.6969 8.78504 15.0049 7.99636Z" fill="#179BD7"/>
<path fill-rule="evenodd" clip-rule="evenodd" d="M13.4833 7.10259C13.3741 7.07083 13.2611 7.04182 13.1454 7.01588C13.0292 6.99044 12.91 6.96774 12.7874 6.94813C12.358 6.87876 11.8877 6.8457 11.3837 6.8457H7.13024C7.02555 6.8457 6.92605 6.86952 6.83692 6.91231C6.64083 7.00664 6.49498 7.19239 6.45965 7.41978L5.5549 13.1517L5.52881 13.3189C5.58845 12.9416 5.91061 12.664 6.29306 12.664H7.88525C11.0123 12.664 13.4608 11.3938 14.1764 7.71947C14.1978 7.61071 14.2158 7.50471 14.232 7.40115C14.0508 7.30519 13.8547 7.22302 13.6436 7.153C13.5916 7.13566 13.5378 7.11896 13.4833 7.10259Z" fill="#222D65"/>
<mask id="mask1_9196_27" style="mask-type:luminance" maskUnits="userSpaceOnUse" x="0" y="2" width="15" height="17">
<path fill-rule="evenodd" clip-rule="evenodd" d="M0.896973 2.96484H14.3102V18.4897H0.896973V2.96484Z" fill="white"/>
</mask>
<g mask="url(#mask1_9196_27)">
<path fill-rule="evenodd" clip-rule="evenodd" d="M6.45913 7.41976C6.49446 7.19237 6.64031 7.00662 6.83639 6.91294C6.92601 6.86999 7.02503 6.84633 7.12971 6.84633H11.3832C11.8872 6.84633 12.3575 6.87939 12.7868 6.94876C12.9094 6.96837 13.0287 6.9909 13.1449 7.01651C13.2606 7.04244 13.3736 7.07146 13.4828 7.10322C13.5372 7.11943 13.591 7.13629 13.6436 7.15298C13.8549 7.223 14.051 7.30566 14.232 7.40129C14.4449 6.04322 14.2304 5.11856 13.4961 4.28125C12.6868 3.3595 11.2259 2.96484 9.35651 2.96484H3.92978C3.54781 2.96484 3.22208 3.24264 3.1631 3.62045L0.902754 17.9504C0.858189 18.234 1.07696 18.4898 1.36266 18.4898H4.71315L5.55438 13.1518L6.45913 7.41976Z" fill="#253B80"/>
</g>
<g clip-path="url(#clip1_9196_27)">
<mask id="mask2_9196_27" style="mask-type:luminance" maskUnits="userSpaceOnUse" x="264" y="2" width="48" height="17">
<path d="M312 2H264V19H312V2Z" fill="white"/>
</mask>
<g mask="url(#mask2_9196_27)">
<path d="M265.221 15.5564L265.637 18.793H280.21L279.733 15.0864H272.938L272.879 14.6271L279.137 10.4535L278.719 7.21094H264.147L264.624 10.9169H271.43L271.489 11.3804L265.221 15.5564Z" fill="black"/>
<path d="M280.412 7.21094L281.902 18.793H296.486L294.996 7.21094H280.412Z" fill="#AA8FFF"/>
<path d="M311.779 11.3805C311.443 8.77738 309.301 7.19966 306.388 7.211H296.688L298.178 18.7937H302.542L302.243 16.4769H306.861C310.496 16.4763 312.159 14.3152 311.779 11.3805ZM306.389 13.2296L301.827 13.2344L301.469 10.4547L306.057 10.4583C307.136 10.4708 307.688 11.0506 307.778 11.8439C307.833 12.3545 307.587 13.229 306.389 13.229V13.2296Z" fill="black"/>
<path d="M284.769 5.6718C285.537 4.88541 285.403 3.57581 284.47 2.74674C283.538 1.91766 282.159 1.88305 281.392 2.66944C280.624 3.45583 280.758 4.76542 281.691 5.59451C282.623 6.42358 284.002 6.45819 284.769 5.6718Z" fill="black"/>
</g>
</g>
</g>
<defs>
<clipPath id="clip0_9196_27">
<rect width="339" height="21" fill="white"/>
</clipPath>
<clipPath id="clip1_9196_27">
<rect width="48" height="17" fill="white" transform="translate(264 2)"/>
</clipPath>
</defs>
</svg>
